<svg xmlns="http://www.w3.org/2000/svg" viewBox="0 0 1200 630" fill="none">
  <rect width="1200" height="630" fill="#F7FBFF" />
  <circle cx="186" cy="126" r="182" fill="#3CA37D" fill-opacity="0.14" />
  <circle cx="1058" cy="118" r="156" fill="#D6A23F" fill-opacity="0.16" />
  <rect x="84" y="84" width="1032" height="462" rx="40" fill="white" stroke="#D8E5EE" />
  <rect x="128" y="128" width="96" height="96" rx="28" fill="url(#g)" />
  <rect x="144" y="144" width="64" height="64" rx="18" fill="white" />
  <path d="M171.6 182.25a37.55 37.55 0 0 0-14.25 3.45l12.1-32.85c.35-1 0.95-1.6 1.7-1.6h14.5c0.75 0 1.35 0.6 1.7 1.6l12.1 32.85s-5.8-3.5-14.25-3.5l-5.35-16.45c-0.2-0.85-0.8-1.4-1.45-1.4s-1.25 0.55-1.45 1.35l-5.4 16.6Zm-2.65 4.05c-1 3.3-0.3 7.9 2.1 10.1.03-.1.07-.23.1-.35a2.75 2.75 0 0 1 2.85-2.25c1.4.05 2.15.75 2.35 2.35.1.55.1 1.15.1 1.75v.2c0 1.35.35 2.6 1.1 3.7a6.5 6.5 0 0 0 2.85 2.45v-.15l-.1-.15c-.9-2.8-.25-4.75 2.2-6.4l.75-.5c.48-.3 1.01-.67 1.6-1.1a8 8 0 0 0 3.4-5.7c.15-1 .05-2-.3-3l-.4.3-.8.5a18.5 18.5 0 0 1-11.2 1.35c-2.5-.35-4.85-1-6.6-3.1Z" fill="#183A63" />
  <text x="268" y="188" fill="#1F7A61" font-family="Aptos, Segoe UI, sans-serif" font-size="24" font-weight="700" letter-spacing="3.8">GOLDEN CARE</text>
  <text x="268" y="244" fill="#0F2845" font-family="Aptos, Segoe UI, sans-serif" font-size="58" font-weight="700">Support services that feel</text>
  <text x="268" y="312" fill="#0F2845" font-family="Aptos, Segoe UI, sans-serif" font-size="58" font-weight="700">calm, capable, and caring.</text>
  <text x="268" y="388" fill="#475569" font-family="Aptos, Segoe UI, sans-serif" font-size="28">Adult day program in Durham Region plus community and home support across the GTA.</text>
  <rect x="268" y="438" width="230" height="54" rx="27" fill="#183A63" />
  <text x="308" y="472" fill="white" font-family="Aptos, Segoe UI, sans-serif" font-size="24" font-weight="600">Apply for services</text>
  <defs>
    <linearGradient id="g" x1="128" y1="128" x2="224" y2="224" gradientUnits="userSpaceOnUse">
      <stop stop-color="#183A63" />
      <stop offset="1" stop-color="#1F7A61" />
    </linearGradient>
  </defs>
</svg>
